<?xml version="1.0" encoding="utf-8"?>
<!-- Generator: Adobe Illustrator 25.4.1, SVG Export Plug-In . SVG Version: 6.00 Build 0)  -->
<svg version="1.1" id="Layer_1" xmlns="http://www.w3.org/2000/svg" xmlns:xlink="http://www.w3.org/1999/xlink" x="0px" y="0px"
	 viewBox="0 0 279.8431 118.9282" style="enable-background:new 0 0 279.8431 118.9282;" xml:space="preserve">
<style type="text/css">
	.st0{fill:#DDAC5E;}
	.st1{fill:#FFFFFF;}
</style>
<g>
	<path class="st0" d="M99.879,81.6676c-0.932-5.3409-2.592-5.934-7.348-5.934c-3.149,0-3.792,0.686-3.792,2.517v8.01
		c3.471-0.076,5.724-0.458,6.817-4.881h0.9v11.099h-0.9c-1.093-4.463-3.346-4.844-6.817-4.92v9.306c0,1.831,1.611,2.517,4.535,2.517
		v1.297h-11.77v-1.297c2.411,0,3.957-0.686,3.957-2.517v-18.614c0-1.831-0.546-2.517-2.957-2.517v-1.296h18.511l-0.14,7.23H99.879z"
		/>
	<path class="st0" d="M98.7535,100.6783v-1.272c1.864,0,2.442-0.374,2.442-1.572v-11.897c0-1.197-0.578-1.571-2.442-1.571v-1.273
		l5.463-0.225v14.966c0,1.198,0.578,1.572,2.443,1.572v1.272H98.7535z"/>
	<path class="st0" d="M136.4606,90.4634c-2.345,0.637-6.298,2.507-6.298,5.763c0,1.684,0.771,2.881,2.345,2.881
		c2.111,0,3.953-2.208,3.953-5.388V90.4634z M142.8936,95.8894c0,2.432-1.072,4.564-3.451,4.564c-1.976,0-2.445-1.421-2.714-3.367
		h-0.066c-0.939,2.769-2.915,3.592-5.394,3.592c-2.379,0-4.724-1.3849-4.724-4.303c0-4.302,7.069-6.024,9.916-7.109v-3.48
		c0-1.87-2.177-2.319-3.45-2.319c-1.173,0-2.144,0.225-3.149,0.936c0.904,0.186,1.44,0.935,1.44,1.982
		c0,1.123-0.804,2.171-1.943,2.171c-1.139,0-1.943-1.048-1.943-2.171c0-2.282,2.646-4.19,5.695-4.19c4.356,0,6.5,1.197,6.5,5.164
		v9.053c0,1.871,0.402,2.096,1.038,2.096c1.073,0,1.307-1.722,1.307-2.619H142.8936z"/>
	<path class="st0" d="M176.8473,96.4128c-1.364,2.619-3.428,4.2661-6.522,4.2661c-4.56,0-8.054-3.892-8.054-9.242
		c0-5.35,4.225-9.242,8.685-9.242c2.73,0,5.525,1.497,5.525,4.191c0,1.272-0.799,2.394-2.063,2.394c-1.299,0-2.064-0.897-2.064-2.02
		c0-1.122,0.599-1.795,1.698-1.795c0.232,0,0.465,0.037,0.698,0.074c-0.499-1.085-1.83-1.571-3.66-1.571
		c-3.228,0-5.225,2.582-5.225,7.557c0,4.6769,1.531,8.381,5.091,8.381c2.397,0,3.894-1.496,5.059-3.442L176.8473,96.4128z"/>
	<path class="st0" d="M188.6279,90.0529c0-2.694-0.465-6.585-3.729-6.585c-3.196,0-3.662,3.8911-3.662,6.585H188.6279z
		 M181.2369,91.3249c0,5.163,1.964,8.0811,4.827,8.0811c2.231,0,3.73-1.534,4.995-3.442l0.798,0.598
		c-1.498,2.47-3.328,4.1169-6.892,4.1169c-4.127,0-7.324-4.266-7.324-9.2419c0-4.976,3.197-9.242,7.324-9.242
		c3.896,0,7.059,3.068,7.059,9.1299H181.2369z"/>
	<path class="st0" d="M148.9684,82.8689v3.518h0.067c1.201-2.321,2.804-3.743,5.109-3.743c2.37,0,4.974,1.385,4.974,6.848v8.343
		c0,1.197,0.602,1.571,2.371,1.571v1.273h-5.509v-12.497c0-3.255-1.436-4.041-2.672-4.041c-2.47,0-4.073,3.48-4.073,6.324v7.37
		c0,1.197,0.601,1.571,2.604,1.571v1.273h-8.113v-1.273c1.769,0,2.37-0.374,2.37-1.571V85.9369c0-1.197-0.601-1.571-2.37-1.571
		v-1.272L148.9684,82.8689z"/>
	<path class="st0" d="M159.109,90.4646v7.3701c0,1.197,0.602,1.571,2.605,1.571v1.273H153.6v-1.273c1.77,0,2.371-0.374,2.371-1.571
		v-11.897"/>
	<path class="st0" d="M113.2686,82.8689v3.518h0.067c1.202-2.321,2.805-3.743,5.109-3.743c2.37,0,4.974,1.385,4.974,6.848v8.343
		c0,1.197,0.602,1.571,2.371,1.571v1.273h-5.509v-12.497c0-3.255-1.436-4.041-2.672-4.041c-2.47,0-4.073,3.48-4.073,6.324v7.37
		c0,1.197,0.601,1.571,2.605,1.571v1.273h-8.114v-1.273c1.769,0,2.37-0.374,2.37-1.571V85.9369c0-1.197-0.601-1.571-2.37-1.571
		v-1.272L113.2686,82.8689z"/>
	<path class="st0" d="M123.4093,90.4646v7.3701c0,1.197,0.602,1.571,2.605,1.571v1.273h-8.114v-1.273
		c1.77,0,2.371-0.374,2.371-1.571v-11.897"/>
	<path class="st1" d="M96.4626,27.7746c-3.021,5.889-8.91,11.522-14.594,14.902c-1.178,0.513-3.073,0.564-4.148-0.256
		c-1.28-1.126-0.717-3.124-0.666-4.608c2.1-11.318,14.185-18.589,23.813-22.276C101.0716,20.2477,98.7166,24.0367,96.4626,27.7746
		 M164.0986,59.5016c-1.11,0.3441-2.313,0.535-3.625,0.535c0.105-0.178,0.208-0.357,0.311-0.535h0.003
		c2.111-3.681,3.857-7.494,5.37-11.448c0.769-2.9189,2.253-6.402,0.717-9.525c-0.614-1.28-1.844-2.508-3.38-2.458
		c-8.91,0.717-16.028,8.962-20.842,16.13c-1.464,2.407-3.095,4.741-4.213,7.296v0.0049c-0.523,1.191-0.935,2.438-1.164,3.761
		c-3.482,3.225-7.22,6.145-11.214,8.296c-0.461,0.256-1.024,0.05-1.331-0.308c-0.41-0.409-0.563-1.024-0.359-1.536l6.753-10.213
		h0.001l22.64-34.235l9.524-13.828c6.965-0.818,13.725-2.15,19.818-5.017c0.103-0.257,0.103-0.717-0.255-0.717
		c-3.893,0.563-7.477,1.895-11.369,2.356c-2.151,0.153-4.199,0.614-6.248,0.819c0.87-1.28,1.587-2.612,2.51-3.893
		c0.614-1.28,1.843-2.765,0.87-4.198c-2.406-0.82-4.864,0.409-7.067,1.024c-3.174,1.638-4.813,4.967-6.708,7.68l-3.994-0.153
		l-18.384-1.945c-5.377-0.257-11.01-0.461-16.182,0.41c-4.302,1.075-8.757,1.843-12.7,3.737c-0.512-1.485-1.023-3.072-2.56-4.096
		c-4.148-2.97-10.6-1.793-14.748,0.255c-9.218,4.558-18.281,11.267-24.99,20.074c-0.665,1.178-1.587,2.202-1.587,3.636l0.461-0.1021
		c5.786-7.067,12.904-13.827,20.278-18.692c5.224-3.072,11.317-6.452,17.718-4.25c1.434,1.075,2.817,2.561,2.612,4.404
		c-3.636,1.537-7.118,3.33-10.395,5.735c-6.35,4.353-12.598,10.703-14.339,18.026c-0.256,2.51-1.024,5.633,1.383,7.272
		c1.741,0.767,4.148,0.511,5.787-0.308c6.606-3.072,12.546-9.678,16.438-15.874c2.201-4.2,4.198-8.501,4.659-13.4171l4.404-1.228
		c10.293-2.561,22.122-2.305,33.388-1.896c3.943,0.052,7.682,0.615,11.625,0.666l-30.162,47.573l-0.085,0.1819l-1.81,3.863
		c-0.666,2.407-2.458,5.428-0.563,7.784c0.615,1.69,2.406,1.894,3.789,2.356c4.763-0.717,8.347-4.148,11.983-7.579l0.461-0.103
		c-0.307,3.021,0.153,5.941,2.202,8.091c1.536,1.075,4.045,0.922,5.735,0.153c4.865-2.559,9.576-6.809,13.11-11.4189
		c2.662-0.358,5.478-0.511,7.988-1.076l-4.66,7.324c-0.614,1.792-3.226,3.738-1.075,5.633c2.407,0.973,5.478,0.564,7.425-1.229
		c3.69-4.452,6.469-9.657,10.625-13.797 M148.0206,59.5016l10.046-14.981c1.587-2.253,2.817-5.019,5.377-6.402
		c0.82,0,1.638,0.308,1.997,1.076c0.665,3.226-1.434,5.7859-2.202,8.603c-2.663,1.587-5.735,3.79-7.015,6.76
		c-0.62,1.529-1.109,3.213-1.174,4.944c-0.027,0.702,0.017,1.412,0.15,2.122c-2.202,3.738-5.89,6.657-9.218,9.474
		c-1.332,0.6151-2.714,2.202-4.251,1.177c-0.767-0.358-0.819-1.177-0.665-1.894l2.509-4.251L148.0206,59.5016z"/>
	<path class="st1" d="M207.7809,59.4992v0.002c-2.535,3.504-5.296,6.901-8.542,10.06c-0.871,0.819-1.844,1.28-2.919,1.435
		c-0.564-0.052-1.127-0.308-1.383-0.872c0.103-1.843,1.383-3.174,2.305-4.66c1.135-2.005,2.318-3.991,3.537-5.963h0.004
		c4.165-6.747,8.752-13.322,13.307-19.897c0.972-1.126,1.842-2.867,3.429-3.175c0.922,0.051,1.896,0.308,2.152,1.332
		c0.972,2.714-1.024,4.864-2.099,7.067C214.2889,49.7072,211.2459,54.7062,207.7809,59.4992 M271.9039,0.0202
		c-3.688-0.153-7.375,0.513-9.73,3.738l-21.866,32.671l-12.086,18.7419l-3.024,4.33l-1.482,2.123
		c-2.918,3.329-6.197,7.323-10.087,9.012c-0.718,0.205-1.64,0.205-2.152-0.461c-0.358-0.461-0.153-1.126,0.052-1.587l5.998-9.087
		l9.62-14.572l3.38-5.786c0.358-1.228,1.997-2.714,0.512-3.943c-3.533-1.638-6.657,1.178-9.269,3.226h-0.306
		c-0.359-1.588-1.588-3.38-3.227-3.891c-4.813-0.872-8.501,1.689-12.034,4.199c-7.733,5.734-10.242,16.437-19.766,19.151
		c-0.872,0.153-1.843,0.3589-2.356-0.563c-0.308-0.512-0.256-1.331-0.051-1.894c5.223-3.227,10.344-8.143,14.235-13.263
		c0.717-1.844,2.868-3.995,0.974-5.941c-2.049-1.024-3.892,0.819-5.429,2.151c-4.301,4.25-7.681,8.961-10.65,13.826
		c-0.359,2.049-2.663,3.021-3.995,4.455c-0.308,0.052-0.717,0.513-0.922-0.051c3.943-6.145,8.245-12.085,11.419-18.537
		c0-0.564,0.359-1.28,0.053-1.793c-1.026-1.075-2.664-0.3069-3.996-0.461c-2.663,0.666-4.762,3.432-6.349,5.634
		c-4.382,5.857-7.699,15.681-15.339,18.073l14.547,0.062c1.15-1.144,2.506-2.291,3.916-3.234c0.101,0.82,0.153,1.844,0.921,2.458
		c0.395,0.307,0.792,0.531,1.191,0.688v0.006c1.068,0.411,2.147,0.332,3.211,0.002v-0.002c1.793-0.553,3.543-1.822,5.123-2.639
		l0.103,0.563c-0.154,0.681-0.31,1.373-0.457,2.076h-0.001c-0.594,2.841-1.038,5.836-0.464,8.832
		c0.665,1.535,1.178,3.891,3.277,4.147c3.789,0.358,6.913-2.356,9.012-5.377c0.667-0.615,1.076-1.793,2.05-1.844
		c-0.257,2.766,0.51,5.326,2.918,6.76c5.94,2.151,10.498-2.868,14.389-6.861c-0.153,1.997-0.153,4.045,0.973,5.5811
		c1.076,1.485,2.766,1.946,4.558,1.946c6.145-1.536,11.112-7.477,15.055-12.495l0.231-0.689l0.129-0.386
		c0.05-0.41-0.461-0.41-0.718-0.308c-0.244,0.229-0.487,0.46-0.729,0.694h-0.007c-3.665,3.562-7.122,7.771-11.298,10.316
		c-0.973,0.4091-2.253,1.127-3.278,0.307c-0.461-0.716,0.052-1.5359,0.052-2.253c1.981-2.757,3.865-5.552,5.708-8.363v-0.007
		c4.965-7.568,9.629-15.252,15.083-22.611l14.646-21.252l6.042-9.678c0.819-1.689,2.15-3.277,2.252-5.223L271.9039,0.0202z"/>
	<path class="st1" d="M122.3231,48.9751c0.564-0.051,1.075,0.308,1.332,0.8199c-0.103,3.4301-3.944,4.505-6.35,5.684l-1.434,0.308
		C116.9461,53.0211,119.3541,49.9491,122.3231,48.9751 M67.9911,58.8591c-1.587,6.299-6.401,11.214-10.19,16.54
		c-7.118,8.347-15.619,15.414-24.273,20.944c-4.967,3.022-10.242,5.327-16.029,6.247c-2.355,0-4.608-0.665-5.837-2.713
		c-1.331-2.561-0.512-5.889,0.256-8.45c4.455-11.369,16.643-19.356,26.782-24.785c8.654-3.994,17.769-6.913,27.704-7.835
		L67.9911,58.8591z M39.9801,110.7841c-6.606,4.608-14.697,7.17-23.351,5.377c-5.479-0.87-11.215-4.968-13.263-10.395
		c-2.202-8.041,0.256-16.233,3.072-23.301c8.399-17.615,26.834-30.877,44.603-35.794c5.479-1.126,12.444-1.178,16.028,3.79
		c1.127,1.843,1.69,3.994,1.434,6.349c-12.188,0.615-23.71,2.662-33.849,8.091c-10.6,4.814-22.275,14.953-25.092,26.629
		c-0.768,4.0959-0.614,8.705,2.714,11.573c8.859,6.7599,20.945,1.69,29.138-2.97c11.368-6.811,23.095-18.179,27.652-30.52
		c0.871-3.4319,1.69-6.965,1.895-10.754l19.306-0.103C75.9291,77.1401,59.7981,97.6741,39.9801,110.7841 M140.1441,13.0271
		c-2.407,0.358-4.609,1.127-6.708,2.202c-8.809,4.506-16.746,11.931-23.71,19.92l-17.872,21.814h-20.278l-0.564-0.101
		c-0.102-2.151-0.358-4.354-1.433-6.146c-3.329-5.478-9.525-6.349-15.568-6.093c-21.354,2.355-42.759,17.462-51.157,37.894
		c-3.892,9.013-4.609,22.378,3.021,29.906c5.991,7.1689,15.721,7.015,24.529,5.991c16.233-1.69,29.957-9.525,42.657-19.92
		c4.916-3.994,8.398-9.218,12.392-13.673c3.766-5.288,7.067-10.65,7.067-10.65c3.073-5.173,6.452-10.294,9.269-15.62l5.786,0.154
		c-1.024,4.046-3.789,7.375-5.018,11.317c1.229-0.1021,2.406-0.307,3.482-0.819c4.148-2.868,6.862-7.169,8.962-11.318
		c1.587-0.205,3.072-0.715,4.455-1.485c2.099-1.484,5.479-3.328,5.274-6.451c0-0.871-0.563-1.588-1.28-2.049
		c-6.247-1.536-11.317,3.688-14.646,8.5l-5.889,0.104c2.253-4.405,4.711-8.706,7.375-12.905
		c6.707-10.191,14.696-21.866,25.859-28.166c1.435-0.767,2.971-1.228,4.404-1.9449
		C140.7071,13.0791,140.3491,13.0791,140.1441,13.0271"/>
</g>
<g>
	<path class="st1" d="M275.0291,1.5689c0.134-0.302,0.315-0.564,0.544-0.786c0.229-0.223,0.495-0.397,0.8-0.524
		c0.304-0.126,0.627-0.19,0.97-0.19c0.342,0,0.664,0.064,0.966,0.19c0.303,0.127,0.567,0.301,0.794,0.524
		c0.226,0.222,0.406,0.484,0.54,0.786c0.133,0.303,0.2,0.629,0.2,0.98c0,0.36-0.067,0.693-0.2,0.997
		c-0.134,0.305-0.314,0.569-0.54,0.793c-0.227,0.225-0.491,0.399-0.794,0.524c-0.302,0.124-0.624,0.186-0.966,0.186
		c-0.343,0-0.666-0.062-0.97-0.186c-0.305-0.125-0.571-0.299-0.8-0.524c-0.229-0.224-0.41-0.488-0.544-0.793
		c-0.133-0.304-0.2-0.637-0.2-0.997C274.8291,2.1979,274.8961,1.8719,275.0291,1.5689 M275.4391,3.3989
		c0.105,0.2599,0.249,0.486,0.434,0.677c0.184,0.191,0.402,0.341,0.653,0.45c0.251,0.109,0.523,0.163,0.817,0.163
		c0.289,0,0.557-0.054,0.806-0.163c0.249-0.1089,0.466-0.259,0.65-0.45c0.185-0.191,0.329-0.4171,0.434-0.677
		c0.104-0.26,0.156-0.543,0.156-0.85c0-0.297-0.052-0.575-0.156-0.833c-0.105-0.258-0.249-0.481-0.434-0.67
		c-0.184-0.189-0.401-0.338-0.65-0.447c-0.249-0.1089-0.517-0.163-0.806-0.163c-0.294,0-0.566,0.054-0.817,0.163
		c-0.251,0.109-0.469,0.2581-0.653,0.447c-0.185,0.189-0.329,0.412-0.434,0.67c-0.104,0.258-0.156,0.536-0.156,0.833
		C275.2831,2.8559,275.3351,3.1389,275.4391,3.3989 M277.4961,1.1029c0.347,0,0.603,0.069,0.77,0.206
		c0.167,0.138,0.25,0.347,0.25,0.627c0,0.262-0.073,0.455-0.22,0.577c-0.147,0.122-0.329,0.194-0.547,0.216l0.834,1.287h-0.487
		l-0.793-1.2531h-0.48v1.2531h-0.454v-2.913H277.4961z M277.2961,2.3959c0.102,0,0.199-0.003,0.29-0.0099
		c0.091-0.007,0.172-0.026,0.243-0.057c0.071-0.031,0.128-0.079,0.17-0.143c0.043-0.064,0.064-0.154,0.064-0.27
		c0-0.098-0.019-0.176-0.057-0.233c-0.038-0.058-0.087-0.102-0.147-0.134c-0.06-0.031-0.129-0.052-0.206-0.063
		c-0.078-0.011-0.155-0.017-0.23-0.017h-0.6v0.9269H277.2961z"/>
</g>
</svg>
